<?xml version="1.0" standalone="no"?>
<!DOCTYPE svg PUBLIC "-//W3C//DTD SVG 20010904//EN"
 "http://www.w3.org/TR/2001/REC-SVG-20010904/DTD/svg10.dtd">
<svg version="1.0" xmlns="http://www.w3.org/2000/svg"
 width="512.000000pt" height="512.000000pt" viewBox="0 0 512.000000 512.000000"
 preserveAspectRatio="xMidYMid meet">

<g transform="translate(0.000000,512.000000) scale(0.100000,-0.100000)"
fill="#000000" stroke="none">
<path d="M2234 5101 c-48 -22 -83 -66 -91 -116 l-6 -35 -106 0 c-312 0 -567
-53 -816 -168 -203 -93 -353 -198 -516 -361 -356 -356 -528 -791 -529 -1332
l0 -106 -35 -6 c-50 -8 -94 -43 -116 -91 -17 -37 -19 -69 -19 -326 0 -257 2
-289 19 -326 22 -48 66 -83 116 -91 l35 -6 0 -106 c0 -312 53 -567 168 -816
93 -203 198 -353 361 -516 356 -356 791 -528 1332 -529 l106 0 6 -35 c8 -50
43 -94 91 -116 37 -17 69 -19 326 -19 257 0 289 2 326 19 48 22 83 66 91 116
l6 35 106 0 c312 0 567 53 816 168 203 93 353 198 516 361 356 356 528 791
529 1332 l0 106 35 6 c50 8 94 43 116 91 17 37 19 69 19 326 0 257 -2 289 -19
326 -22 48 -66 83 -116 91 l-35 6 0 106 c0 312 -53 567 -168 816 -93 203 -198
353 -361 516 -356 356 -791 528 -1332 529 l-106 0 -6 35 c-8 50 -43 94 -91
116 -37 17 -69 19 -326 19 -257 0 -289 -2 -326 -19z m-96 -338 c-3 -24 -10
-28 -83 -45 -817 -192 -1461 -836 -1653 -1653 -18 -75 -21 -80 -47 -83 l-28
-4 6 174 c7 199 25 325 67 467 157 529 572 944 1101 1101 160 47 292 65 517
68 l123 2 -3 -27z m1284 2 c534 -86 1003 -448 1222 -942 95 -214 133 -394 143
-671 l6 -174 -28 4 c-26 3 -29 8 -47 83 -192 817 -836 1461 -1653 1653 -75 18
-80 21 -83 47 l-4 28 174 -6 c95 -3 216 -13 270 -22z m-606 -169 c112 -15 250
-45 339 -72 28 -9 55 -17 62 -19 9 -3 5 -21 -11 -62 -13 -32 -62 -158 -110
-280 l-87 -222 -26 10 c-116 44 -359 70 -531 58 -101 -7 -257 -36 -315 -58
l-26 -10 -87 222 c-48 122 -97 248 -110 280 -16 41 -20 59 -11 62 7 2 35 10
62 19 84 26 225 57 325 70 130 19 393 19 526 2z m-1073 -168 c11 -28 260 -664
268 -685 7 -20 3 -26 -39 -49 -238 -133 -413 -308 -546 -546 l-27 -48 -37 15
c-20 8 -180 71 -356 139 -175 69 -320 127 -323 129 -7 7 92 198 144 280 154
241 380 469 618 623 57 37 273 153 286 154 4 0 9 -6 12 -12z m1747 -38 c321
-161 606 -419 803 -727 52 -82 151 -273 144 -280 -3 -2 -148 -60 -323 -129
-176 -68 -336 -131 -356 -139 l-37 -15 -27 48 c-133 238 -308 413 -546 546
-42 23 -46 29 -39 49 8 21 257 657 268 685 3 6 7 12 9 12 3 0 49 -23 104 -50z
m-710 -737 c136 -27 283 -88 407 -169 75 -49 248 -222 297 -297 129 -199 188
-394 188 -627 0 -233 -59 -428 -188 -627 -49 -75 -222 -248 -297 -297 -199
-129 -394 -188 -627 -188 -233 0 -428 59 -627 188 -75 49 -248 222 -297 297
-129 199 -188 394 -188 627 0 233 59 428 188 627 49 75 222 248 297 297 258
168 554 227 847 169z m-1825 -557 l221 -86 -28 -112 c-53 -212 -53 -464 0
-676 l28 -112 -221 -86 c-121 -48 -246 -97 -278 -110 -41 -16 -59 -20 -62 -11
-2 7 -10 35 -19 62 -100 322 -113 716 -36 1050 11 50 28 113 36 140 9 28 17
55 19 62 3 9 21 5 62 -11 32 -13 157 -62 278 -110z m3573 44 c111 -392 110
-809 -4 -1175 -9 -27 -17 -55 -19 -62 -3 -9 -21 -5 -62 11 -32 13 -158 62
-280 110 l-222 87 10 26 c22 58 51 214 58 315 12 172 -14 415 -58 531 l-10 26
222 87 c122 48 247 97 277 109 30 12 58 19 61 16 3 -3 15 -40 27 -81z m-4126
-1085 c192 -817 836 -1461 1653 -1653 75 -18 80 -21 83 -47 l4 -28 -174 6
c-277 10 -457 48 -671 143 -361 160 -661 460 -821 821 -95 214 -133 394 -143
671 l-6 174 28 -4 c26 -3 29 -8 47 -83z m4385 -87 c-7 -199 -25 -325 -67 -467
-157 -529 -572 -944 -1101 -1101 -142 -42 -268 -60 -467 -67 l-174 -6 4 28 c3
26 8 29 83 47 709 167 1301 682 1562 1358 31 83 77 229 92 300 18 80 18 80 47
80 l27 0 -6 -172z m-3336 -38 c102 -192 294 -377 521 -504 l48 -27 -15 -37
c-8 -20 -71 -180 -139 -356 -69 -175 -127 -320 -129 -323 -7 -7 -198 92 -280
144 -246 158 -472 384 -630 630 -53 82 -151 273 -144 280 3 2 164 67 358 143
399 156 356 151 410 50z m2663 -64 c175 -69 320 -127 323 -129 7 -7 -92 -198
-144 -280 -158 -246 -384 -472 -630 -630 -82 -52 -273 -151 -280 -144 -2 3
-60 148 -129 323 -68 176 -131 336 -139 356 l-15 37 48 27 c238 133 413 308
546 546 l27 48 37 -15 c20 -8 180 -71 356 -139z m-1860 -727 c186 -41 426 -41
612 0 50 11 103 25 117 30 l26 10 87 -222 c48 -122 97 -248 110 -280 16 -41
20 -59 11 -62 -7 -2 -34 -10 -62 -19 -27 -8 -90 -25 -140 -36 -334 -77 -728
-64 -1050 36 -27 9 -55 17 -62 19 -9 3 -5 21 11 62 13 32 62 158 110 280 l87
222 26 -10 c14 -5 67 -19 117 -30z"/>
</g>
</svg>
